<svg xmlns="http://www.w3.org/2000/svg" xmlns:svg="http://www.w3.org/2000/svg" id="Layer_1" width="100%" height="100%" version="1.1" viewBox="0 0 16 16.1" xml:space="preserve"><metadata id="metadata6303"/><path id="path6297" d="m 16,9.3983049 v -2.9 l -1.8,-0.3 c -0.1,-0.4 -0.3,-0.8 -0.6,-1.4 l 1.1,-1.5 -2.1,-2.1 -1.5,1.1 c -0.5,-0.3 -1,-0.5 -1.4,-0.6 L 9.5,-0.10169511 H 6.6 L 6.3,1.6983049 c -0.5,0.1 -0.9,0.3 -1.4,0.6 l -1.5,-1.1 -2.1,2.1 1,1.5 c -0.3,0.5 -0.4,0.9 -0.6,1.4 l -1.7,0.2 v 2.9 l 1.8,0.3 c 0.1,0.5000001 0.3,0.9000001 0.6,1.4000001 l -1,1.5 2.1,2.1 1.5,-1 c 0.4,0.2 0.9,0.4 1.4,0.6 l 0.3,1.8 h 3 l 0.3,-1.8 c 0.5,-0.1 0.9,-0.3 1.4,-0.6 l 1.5,1.1 2.1,-2.1 -1.1,-1.5 c 0.3,-0.5 0.5,-1 0.6,-1.4000001 l 1.5,-0.3 z M 8,10.898305 c -1.7,0 -3,-1.3000001 -3,-3.0000001 0,-1.7 1.3,-3 3,-3 1.7,0 3,1.3 3,3 0,1.7 -1.3,3.0000001 -3,3.0000001 z" style="fill:#fff;fill-opacity:.80952382;stroke:none"/></svg>